<?xml version="1.0" encoding="utf-8"?>
<svg version="1.1" xmlns="http://www.w3.org/2000/svg" xmlns:xlink="http://www.w3.org/1999/xlink" x="0mm" y="0mm"
	 width="57mm" height="32mm" viewBox="0 0 57mm 32mm"><g transform="scale(0.5)">
<path id="veo-logo" fill-rule="evenodd" clip-rule="evenodd" d="M60.47,29.43c1.92-0.93,1.32-3.67-0.02-4.94c-1.43-1.36-5.04-2.59-6.9-1.72
	c-0.8,0.38-1.21,1.1-1.21,2.16c0,1.06,0.4,1.98,1.21,2.77C54.98,29.09,58.63,30.32,60.47,29.43 M52.02,44.64
	c0,2.11,1.34,3.74,3.27,4.35l-1.04-6.75C52.79,42.1,52.02,43.28,52.02,44.64 M52.52,53.44c-3.24-2.31-5.11-5.89-5.11-9.96
	c0-2.18,0.57-4.46,2.23-5.94c1.58-1.42,3.68-1.6,5.65-1.1c1.73,0.44,2.51,1.66,2.76,3.39l1.47,10.33c3.36-0.45,2.97-7.1,1.54-9.42
	c-1-1.62,1-2.05,2-1.55c1.96,0.99,3.48,4.43,3.57,7.34c0.14,4.62-1.89,9.18-7.16,9.27C57.19,55.84,54.7,55,52.52,53.44
	 M61.93,66.12c-3.66,0.1-8.4,0.35-12.05,0.62c-2.98,0.25-2.65,2.47-1.95,4.61c0.42,1.27,1.05,2.67,1.48,3.74
	c0.27,0.69,1.18,0.64,1.38-0.12c0.52-1.96,1.63-1.97,3.47-2.2l9.3-1.18c1.27-0.16,2.49-0.33,2.89-1.66
	c0.67-2.21,0.73-6.86-2.55-8.66l-15.59-8.53c-1.78-0.97-0.57,6.77,0.83,7.42L61.93,66.12z M61.1,17.92
	c3.67,2.39,5.52,6.21,5.52,10.61c0,3.84-1.59,7.19-5.61,7.81c-2.6,0.4-5.81-0.58-7.99-2.01c-3.63-2.38-5.61-6.27-5.61-10.63
	c0-3.83,1.66-7.19,5.65-7.8C55.67,15.5,58.91,16.49,61.1,17.92"/>
<g id="ean">
	<g><rect x="77.25" y="11.34" width="0.84" height="71.77"/></g>
	<g><rect x="78.92" y="11.34" width="0.84" height="71.77"/></g>
	<g><rect x="80.59" y="11.34" width="2.51" height="67.6"/></g>
	<g><rect x="83.93" y="11.34" width="1.67" height="67.6"/></g>
	<g><rect x="86.44" y="11.34" width="0.84" height="67.6"/></g>
	<g><rect x="88.95" y="11.34" width="2.51" height="67.6"/></g>
	<g><rect x="92.29" y="11.34" width="0.84" height="67.6"/></g>
	<g><rect x="94.8" y="11.34" width="2.51" height="67.6"/></g>
	<g><rect x="99.82" y="11.34" width="1.67" height="67.6"/></g>
	<g><rect x="102.32" y="11.34" width="0.84" height="67.6"/></g>
	<g><rect x="105.67" y="11.34" width="1.67" height="67.6"/></g>
	<g><rect x="108.17" y="11.34" width="0.84" height="67.6"/></g>
	<g><rect x="110.68" y="11.34" width="1.67" height="67.6"/></g>
	<g><rect x="113.19" y="11.34" width="1.67" height="67.6"/></g>
	<g><rect x="115.7" y="11.34" width="0.84" height="71.77"/></g>
	<g><rect x="117.37" y="11.34" width="0.84" height="71.77"/></g>
	<g><rect x="119.04" y="11.34" width="1.67" height="67.6"/></g>
	<g><rect x="122.38" y="11.34" width="1.67" height="67.6"/></g>
	<g><rect x="124.89" y="11.34" width="0.84" height="67.6"/></g>
	<g><rect x="129.07" y="11.34" width="0.84" height="67.6"/></g>
	<g><rect x="130.74" y="11.34" width="0.84" height="67.6"/></g>
	<g><rect x="134.09" y="11.34" width="0.84" height="67.6"/></g>
	<g><rect x="136.59" y="11.34" width="0.84" height="67.6"/></g>
	<g><rect x="139.1" y="11.34" width="0.84" height="67.6"/></g>
	<g><rect x="142.44" y="11.34" width="2.51" height="67.6"/></g>
	<g><rect x="146.62" y="11.34" width="0.84" height="67.6"/></g>
	<g><rect x="148.29" y="11.34" width="0.84" height="67.6"/></g>
	<g><rect x="151.64" y="11.34" width="0.84" height="67.6"/></g>
	<g><rect x="154.15" y="11.34" width="0.84" height="71.77"/></g>
	<g><rect x="155.82" y="11.34" width="0.84" height="71.77"/></g>
	<text transform="matrix(1 0 0 1 71.0161 85.4198)" font-family="'Rubik-Regular'" font-size="7.5226px">5</text>
	<text transform="matrix(1 0 0 1 84.7788 85.4198)" font-family="'Rubik-Regular'" font-size="7.5226px">700002</text>
	<text transform="matrix(1 0 0 1 124.481 85.4198)" font-family="'Rubik-Regular'" font-size="7.5226px">137807</text>
</g>
<text transform="matrix(6.123234e-17 -1 1 6.123234e-17 18.0187 45.8667)"><tspan id="sku" x="0" y="0" font-family="'Rubik-Regular'" font-size="7px">SKU:VEO1</tspan><tspan id="revision" x="-1.16" y="8.4" font-family="'Rubik-Regular'" font-size="7px">Rev. 1.74 c</tspan><tspan id="date" x="-3.91" y="16.8" font-family="'Rubik-Regular'" font-size="7px">2019-05-28</tspan></text>
<g transform="translate(9.64 54.69),scale(1.2)"><path d="M 20 10 L 20 11 L 21 11 L 21 10 z M 18 21 L 18 22 L 19 22 L 19 21 z M 16 5 L 16 6 L 17 6 L 17 5 z M 15 15 L 15 16 L 16 16 L 16 15 z M 4 24 L 4 25 L 5 25 L 5 24 z M 11 16 L 11 17 L 12 17 L 12 16 z M 18 8 L 18 9 L 19 9 L 19 8 z M 16 16 L 16 17 L 17 17 L 17 16 z M 22 8 L 22 9 L 23 9 L 23 8 z M 17 21 L 17 22 L 18 22 L 18 21 z M 5 10 L 5 11 L 6 11 L 6 10 z M 5 15 L 5 16 L 6 16 L 6 15 z M 8 4 L 8 5 L 9 5 L 9 4 z M 14 12 L 14 13 L 15 13 L 15 12 z M 13 4 L 13 5 L 14 5 L 14 4 z M 15 9 L 15 10 L 16 10 L 16 9 z M 14 11 L 14 12 L 15 12 L 15 11 z M 20 7 L 20 8 L 21 8 L 21 7 z M 10 14 L 10 15 L 11 15 L 11 14 z M 16 10 L 16 11 L 17 11 L 17 10 z M 14 22 L 14 23 L 15 23 L 15 22 z M 21 6 L 21 7 L 22 7 L 22 6 z M 4 21 L 4 22 L 5 22 L 5 21 z M 18 5 L 18 6 L 19 6 L 19 5 z M 16 21 L 16 22 L 17 22 L 17 21 z M 22 13 L 22 14 L 23 14 L 23 13 z M 4 8 L 4 9 L 5 9 L 5 8 z M 24 8 L 24 9 L 25 9 L 25 8 z M 22 24 L 22 25 L 23 25 L 23 24 z M 7 6 L 7 7 L 8 7 L 8 6 z M 6 10 L 6 11 L 7 11 L 7 10 z M 12 6 L 12 7 L 13 7 L 13 6 z M 14 17 L 14 18 L 15 18 L 15 17 z M 13 7 L 13 8 L 14 8 L 14 7 z M 10 4 L 10 5 L 11 5 L 11 4 z M 8 20 L 8 21 L 9 21 L 9 20 z M 15 4 L 15 5 L 16 5 L 16 4 z M 20 4 L 20 5 L 21 5 L 21 4 z M 18 19 L 18 20 L 19 20 L 19 19 z M 16 15 L 16 16 L 17 16 L 17 15 z M 23 17 L 23 18 L 24 18 L 24 17 z M 24 23 L 24 24 L 25 24 L 25 23 z M 21 17 L 21 18 L 22 18 L 22 17 z M 19 18 L 19 19 L 20 19 L 20 18 z M 18 6 L 18 7 L 19 7 L 19 6 z M 17 14 L 17 15 L 18 15 L 18 14 z M 20 23 L 20 24 L 21 24 L 21 23 z M 6 21 L 6 22 L 7 22 L 7 21 z M 4 5 L 4 6 L 5 6 L 5 5 z M 7 16 L 7 17 L 8 17 L 8 16 z M 5 16 L 5 17 L 6 17 L 6 16 z M 6 15 L 6 16 L 7 16 L 7 15 z M 13 13 L 13 14 L 14 14 L 14 13 z M 9 18 L 9 19 L 10 19 L 10 18 z M 7 22 L 7 23 L 8 23 L 8 22 z M 14 18 L 14 19 L 15 19 L 15 18 z M 19 20 L 19 21 L 20 21 L 20 20 z M 18 12 L 18 13 L 19 13 L 19 12 z M 10 20 L 10 21 L 11 21 L 11 20 z M 23 12 L 23 13 L 24 13 L 24 12 z M 22 4 L 22 5 L 23 5 L 23 4 z M 21 12 L 21 13 L 22 13 L 22 12 z M 19 17 L 19 18 L 20 18 L 20 17 z M 15 20 L 15 21 L 16 21 L 16 20 z M 20 20 L 20 21 L 21 21 L 21 20 z M 24 7 L 24 8 L 25 8 L 25 7 z M 6 22 L 6 23 L 7 23 L 7 22 z M 4 18 L 4 19 L 5 19 L 5 18 z M 12 13 L 12 14 L 13 14 L 13 13 z M 8 16 L 8 17 L 9 17 L 9 16 z M 6 16 L 6 17 L 7 17 L 7 16 z M 13 8 L 13 9 L 14 9 L 14 8 z M 7 21 L 7 22 L 8 22 L 8 21 z M 14 7 L 14 8 L 15 8 L 15 7 z M 10 18 L 10 19 L 11 19 L 11 18 z M 23 22 L 23 23 L 24 23 L 24 22 z M 21 10 L 21 11 L 22 11 L 22 10 z M 18 9 L 18 10 L 19 10 L 19 9 z M 16 17 L 16 18 L 17 18 L 17 17 z M 21 15 L 21 16 L 22 16 L 22 15 z M 19 4 L 19 5 L 20 5 L 20 4 z M 24 4 L 24 5 L 25 5 L 25 4 z M 22 20 L 22 21 L 23 21 L 23 20 z M 4 15 L 4 16 L 5 16 L 5 15 z M 7 10 L 7 11 L 8 11 L 8 10 z M 6 6 L 6 7 L 7 7 L 7 6 z M 12 10 L 12 11 L 13 11 L 13 10 z M 14 13 L 14 14 L 15 14 L 15 13 z M 13 11 L 13 12 L 14 12 L 14 11 z M 10 8 L 10 9 L 11 9 L 11 8 z M 13 24 L 13 25 L 14 25 L 14 24 z M 20 8 L 20 9 L 21 9 L 21 8 z M 18 23 L 18 24 L 19 24 L 19 23 z M 15 13 L 15 14 L 16 14 L 16 13 z M 4 22 L 4 23 L 5 23 L 5 22 z M 19 14 L 19 15 L 20 15 L 20 14 z M 18 10 L 18 11 L 19 11 L 19 10 z M 24 14 L 24 15 L 25 15 L 25 14 z M 16 22 L 16 23 L 17 23 L 17 22 z M 22 10 L 22 11 L 23 11 L 23 10 z M 4 9 L 4 10 L 5 10 L 5 9 z M 17 23 L 17 24 L 18 24 L 18 23 z M 24 9 L 24 10 L 25 10 L 25 9 z M 5 4 L 5 5 L 6 5 L 6 4 z M 4 12 L 4 13 L 5 13 L 5 12 z M 8 15 L 8 16 L 9 16 L 9 15 z M 12 7 L 12 8 L 13 8 L 13 7 z M 8 10 L 8 11 L 9 11 L 9 10 z M 10 5 L 10 6 L 11 6 L 11 5 z M 8 21 L 8 22 L 9 22 L 9 21 z M 10 24 L 10 25 L 11 25 L 11 24 z M 9 24 L 9 25 L 10 25 L 10 24 z M 16 8 L 16 9 L 17 9 L 17 8 z M 23 16 L 23 17 L 24 17 L 24 16 z M 21 16 L 21 17 L 22 17 L 22 16 z M 20 24 L 20 25 L 21 25 L 21 24 z M 18 7 L 18 8 L 19 8 L 19 7 z M 17 13 L 17 14 L 18 14 L 18 13 z M 4 6 L 4 7 L 5 7 L 5 6 z M 12 17 L 12 18 L 13 18 L 13 17 z M 7 4 L 7 5 L 8 5 L 8 4 z M 10 6 L 10 7 L 11 7 L 11 6 z M 15 18 L 15 19 L 16 19 L 16 18 z M 18 13 L 18 14 L 19 14 L 19 13 z M 10 21 L 10 22 L 11 22 L 11 21 z M 16 13 L 16 14 L 17 14 L 17 13 z M 23 15 L 23 16 L 24 16 L 24 15 z M 15 23 L 15 24 L 16 24 L 16 23 z M 5 24 L 5 25 L 6 25 L 6 24 z M 17 16 L 17 17 L 18 17 L 18 16 z M 24 16 L 24 17 L 25 17 L 25 16 z M 16 24 L 16 25 L 17 25 L 17 24 z M 4 19 L 4 20 L 5 20 L 5 19 z M 5 18 L 5 19 L 6 19 L 6 18 z M 12 14 L 12 15 L 13 15 L 13 14 z M 9 4 L 9 5 L 10 5 L 10 4 z M 7 20 L 7 21 L 8 21 L 8 20 z M 14 4 L 14 5 L 15 5 L 15 4 z M 10 19 L 10 20 L 11 20 L 11 19 z M 18 14 L 18 15 L 19 15 L 19 14 z M 10 22 L 10 23 L 11 23 L 11 22 z M 23 10 L 23 11 L 24 11 L 24 10 z M 22 6 L 22 7 L 23 7 L 23 6 z M 21 14 L 21 15 L 22 15 L 22 14 z M 24 5 L 24 6 L 25 6 L 25 5 z M 6 24 L 6 25 L 7 25 L 7 24 z M 22 21 L 22 22 L 23 22 L 23 21 z M 4 16 L 4 17 L 5 17 L 5 16 z M 7 13 L 7 14 L 8 14 L 8 13 z M 6 7 L 6 8 L 7 8 L 7 7 z M 5 13 L 5 14 L 6 14 L 6 13 z M 12 11 L 12 12 L 13 12 L 13 11 z M 8 6 L 8 7 L 9 7 L 9 6 z M 6 18 L 6 19 L 7 19 L 7 18 z M 10 9 L 10 10 L 11 10 L 11 9 z M 14 9 L 14 10 L 15 10 L 15 9 z M 10 12 L 10 13 L 11 13 L 11 12 z M 15 12 L 15 13 L 16 13 L 16 12 z M 14 20 L 14 21 L 15 21 L 15 20 z M 21 4 L 21 5 L 22 5 L 22 4 z M 23 20 L 23 21 L 24 21 L 24 20 z M 4 23 L 4 24 L 5 24 L 5 23 z M 24 15 L 24 16 L 25 16 L 25 15 z M 16 23 L 16 24 L 17 24 L 17 23 z M 4 10 L 4 11 L 5 11 L 5 10 z M 19 10 L 19 11 L 20 11 L 20 10 z M 17 22 L 17 23 L 18 23 L 18 22 z M 24 10 L 24 11 L 25 11 L 25 10 z M 4 13 L 4 14 L 5 14 L 5 13 z M 7 8 L 7 9 L 8 9 L 8 8 z M 6 8 L 6 9 L 7 9 L 7 8 z M 14 15 L 14 16 L 15 16 L 15 15 z M 13 5 L 13 6 L 14 6 L 14 5 z M 10 10 L 10 11 L 11 11 L 11 10 z M 9 10 L 9 11 L 10 11 L 10 10 z M 8 22 L 8 23 L 9 23 L 9 22 z M 15 6 L 15 7 L 16 7 L 16 6 z M 14 10 L 14 11 L 15 11 L 15 10 z M 20 6 L 20 7 L 21 7 L 21 6 z M 21 7 L 21 8 L 22 8 L 22 7 z M 4 20 L 4 21 L 5 21 L 5 20 z M 18 4 L 18 5 L 19 5 L 19 4 z M 17 12 L 17 13 L 18 13 L 18 12 z M 23 4 L 23 5 L 24 5 L 24 4 z M 22 12 L 22 13 L 23 13 L 23 12 z M 4 7 L 4 8 L 5 8 L 5 7 z M 21 20 L 21 21 L 22 21 L 22 20 z M 7 18 L 7 19 L 8 19 L 8 18 z M 8 13 L 8 14 L 9 14 L 9 13 z M 7 7 L 7 8 L 8 8 L 8 7 z M 13 19 L 13 20 L 14 20 L 14 19 z M 12 5 L 12 6 L 13 6 L 13 5 z M 8 8 L 8 9 L 9 9 L 9 8 z M 7 24 L 7 25 L 8 25 L 8 24 z M 12 24 L 12 25 L 13 25 L 13 24 z M 10 7 L 10 8 L 11 8 L 11 7 z M 13 21 L 13 22 L 14 22 L 14 21 z M 16 14 L 16 15 L 17 15 L 17 14 z M 15 22 L 15 23 L 16 23 L 16 22 z M 24 22 L 24 23 L 25 23 L 25 22 z M 20 22 L 20 23 L 21 23 L 21 22 z M 17 15 L 17 16 L 18 16 L 18 15 z M 6 20 L 6 21 L 7 21 L 7 20 z M 22 17 L 22 18 L 23 18 L 23 17 z M 4 4 L 4 5 L 5 5 L 5 4 z M 8 18 L 8 19 L 9 19 L 9 18 z M 13 14 L 13 15 L 14 15 L 14 14 z M 10 16 L 10 17 L 11 17 L 11 16 z M 8 24 L 8 25 L 9 25 L 9 24 z M 15 16 L 15 17 L 16 17 L 16 16 z M 21 8 L 21 9 L 22 9 L 22 8 z M 19 21 L 19 22 L 20 22 L 20 21 z M 10 23 L 10 24 L 11 24 L 11 23 z M 23 13 L 23 14 L 24 14 L 24 13 z M 22 7 L 22 8 L 23 8 L 23 7 z M 15 21 L 15 22 L 16 22 L 16 21 z M 24 6 L 24 7 L 25 7 L 25 6 z M 22 18 L 22 19 L 23 19 L 23 18 z M 6 4 L 6 5 L 7 5 L 7 4 z M 12 12 L 12 13 L 13 13 L 13 12 z M 8 7 L 8 8 L 9 8 L 9 7 z M 14 6 L 14 7 L 15 7 L 15 6 z" id="qrcode" style="fill:#000000;fill-opacity:1;fill-rule:nonzero;stroke:none" /></g>
</g></svg>